<svg height="800" width="800" xmlns="http://www.w3.org/2000/svg" viewBox="0 0 512 512" xml:space="preserve">
<path fill="currentColor" d="m449.426 192-.941-16H408v48h43.309z"/>
<path fill="currentColor" d="m448.485 176 .941 16 13.648 232.014c.258 4.393 4.07 7.986 8.47 7.986s8-3.6 8-8V176h-31.059z"/>
<path fill="currentColor" d="M104 144v104c0 4.418 3.578 8 8 8s8-3.582 8-8a8 8 0 0 1 16 0c0 4.418 3.578 8 8 8s8-3.582 8-8a8 8 0 0 1 16 0c0 4.418 3.578 8 8 8s8-3.582 8-8a8 8 0 0 1 16 0c0 4.418 3.578 8 8 8s8-3.582 8-8a8 8 0 0 1 16 0c0 4.418 3.578 8 8 8s8-3.582 8-8a8 8 0 0 1 16 0c0 4.418 3.578 8 8 8s8-3.582 8-8a8 8 0 0 1 16 0c0 4.418 3.578 8 8 8s8-3.582 8-8a8 8 0 0 1 16 0c0 4.418 3.578 8 8 8s8-3.582 8-8a8 8 0 0 1 16 0c0 4.418 3.578 8 8 8s8-3.582 8-8a8 8 0 0 1 16 0c0 4.418 3.578 8 8 8s8-3.582 8-8V144H104z"/>
<path fill="currentColor" d="M479.544 192h-30.118l-.941-16h31.059z"/>
<path fill="currentColor" d="M304 88v-8h-56v56a8 8 0 0 0 8 8h40a8 8 0 0 0 8-8c13.252 0 24-10.745 24-24s-10.748-24-24-24zm0 39.272V96.727c9.639 0 15.272 5.634 15.272 15.273s-5.633 15.272-15.272 15.272zM112 120l8 16h8l8 8h64l8-8h8l8-16z"/>
<path fill="currentColor" d="M278.891 136H248c0 3.927 4.073 8 8 8h40.889a7.111 7.111 0 0 0 7.111-7.111V80h-3.555c-7.855 0-14.222 6.367-14.222 14.223v34.446a7.332 7.332 0 0 1-7.332 7.331zM189.333 120 184 136h-12l-4 8h32l8-8h8l8-16z"/>
<path  fill="currentColor" d="m449.426 192 13.648 232.014c.258 4.393 4.07 7.986 8.47 7.986s8-3.6 8-8V192h-30.118z"/>
<path fill="currentColor" d="M408 176v16h41.426l-.941-16z"/>
<path fill="currentColor" d="m62.574 192 .941-16H104v48H60.691z"/>
<path  fill="currentColor" d="m63.515 176-.941 16-13.648 232.014c-.258 4.393-4.07 7.986-8.47 7.986s-8-3.6-8-8V176h31.059z"/>
<path fill="currentColor" d="M32.456 192h30.118l.941-16H32.456z"/>
<path  fill="currentColor" d="M62.574 192 48.926 424.014c-.258 4.393-4.07 7.986-8.47 7.986s-8-3.6-8-8V192h30.118z"/>
<path fill="currentColor" d="M104 176v16H62.574l.941-16z"/>
<path  fill="currentColor" d="M104 144H8c-4.4 0-8 3.6-8 8v16c0 4.4 3.6 8 8 8h96v-32zM504 144h-96v32h96c4.4 0 8-3.6 8-8v-16c0-4.4-3.6-8-8-8z"/>
<path fill="currentColor" d="M224 184a8 8 0 0 0-8 8v56a8 8 0 0 1 16 0v-56a8 8 0 0 0-8-8zM256 176a8 8 0 0 0-8 8v64a8 8 0 0 1 16 0v-64a8 8 0 0 0-8-8zM160 176a8 8 0 0 0-8 8v64a8 8 0 0 1 16 0v-64a8 8 0 0 0-8-8zM192 208a8 8 0 0 0-8 8v32a8 8 0 0 1 16 0v-32a8 8 0 0 0-8-8zM352 200a8 8 0 0 0-8 8v40a8 8 0 0 1 16 0v-40a8 8 0 0 0-8-8zM384 184a8 8 0 0 0-8 8v56a8 8 0 0 1 16 0v-56a8 8 0 0 0-8-8zM288 160a8 8 0 0 0-8 8v80a8 8 0 0 1 16 0v-80a8 8 0 0 0-8-8zM320 176a8 8 0 0 0-8 8v64a8 8 0 0 1 16 0v-64a8 8 0 0 0-8-8zM128 160a8 8 0 0 0-8 8v80a8 8 0 0 1 16 0v-80a8 8 0 0 0-8-8z"/>
</svg>